:SAMPLES-PER-SECOND 30
:FULLY-SPECIFIED
:DEGREES
412
root  -49.5213 39.4754 2.10419 -118.56 -84.0551 109.974
RightUpLeg  -19.2612 2.21246 -9.78145
RightLeg  34.0053 2.24025 1.38099
RightFoot  -1.41905 -0.836854 9.50854
RightToes  3.49245e-010 0 -3.6325e-017
Spine  5.6836 -1.41708 -7.77246
Spine1  7.71303 -2.06899 -0.32175
HEad  -9.43168 4.20925 -2.76936
LeftShoulder1  -0.324243 4.3826 -30.7632
LeftArm  9.99735 -22.954 -44.6447
LeftForeArm  17.5784 -28.5165 -5.2179
LeftHand  -0.021561 5.47212 4.74416
RightShoulder  -0.829319 -5.849 28.7534
RightArm  17.9952 -12.5454 43.0843
RightForeArm  19.4583 10.7382 7.19184
RightHand  -0.113767 5.32396 -1.53338
LeftUpLeg  0.746715 4.4911 -8.8557
LeftLeg  18.633 1.74099 0.419783
LeftFoot  -10.6903 0.0187124 8.04832
LeftToes  -5.6298e-010 8.41567e-011 -1.83319e-011
413
root  -50.5392 39.4366 2.10279 -115.474 -83.7713 107.006
RightUpLeg  -19.1884 1.28076 -9.89871
RightLeg  24.059 1.98029 0.819628
RightFoot  -1.23352 -0.824011 9.20245
RightToes  3.49245e-010 0 -3.6325e-017
Spine  5.38577 -1.50757 -7.66204
Spine1  7.93171 -1.96706 -0.495847
HEad  -9.85286 3.91815 -2.57462
LeftShoulder1  -0.314789 4.37703 -29.9132
LeftArm  7.64028 -23.4361 -45.1346
LeftForeArm  20.3857 -32.1358 -5.91592
LeftHand  -0.0184601 5.54077 4.80523
RightShoulder  -0.86355 -5.92403 29.0853
RightArm  15.9241 -12.3788 42.8394
RightForeArm  21.5728 9.09974 7.04435
RightHand  -0.030459 3.96517 -0.652952
LeftUpLeg  2.50736 4.63816 -9.19038
LeftLeg  18.3382 1.51745 0.30401
LeftFoot  -12.1144 0.128465 8.19241
LeftToes  -5.6298e-010 8.41567e-011 -1.83319e-011
414
root  -51.5444 39.3636 2.10064 -112.495 -83.1021 104.683
RightUpLeg  -19.4604 -0.404556 -9.93442
RightLeg  14.7953 2.73484 0.304958
RightFoot  -1.05377 -0.859614 9.44669
RightToes  3.49245e-010 0 -3.6325e-017
Spine  4.72227 -1.48619 -7.69947
Spine1  8.00391 -1.77031 -0.377333
HEad  -9.80816 3.54896 -2.31149
LeftShoulder1  -0.375186 4.53843 -30.1066
LeftArm  7.39286 -24.5817 -45.2798
LeftForeArm  21.2034 -33.7548 -6.28183
LeftHand  -0.0365014 5.06275 4.65298
RightShoulder  -0.851727 -5.89149 29.0687
RightArm  14.4144 -11.9435 43.0452
RightForeArm  22.4476 7.20214 6.91092
RightHand  -0.0342252 3.8565 -0.703642
LeftUpLeg  3.74994 4.43716 -10.0421
LeftLeg  17.7922 1.85556 0.379835
LeftFoot  -13.4112 0.22977 8.25099
LeftToes  -5.6298e-010 8.41567e-011 -1.83319e-011
415
root  -52.6426 39.2713 2.09755 -109.97 -82.6797 102.371
RightUpLeg  -18.8575 -5.7453 -8.4713
RightLeg  6.41925 7.57868 -0.415811
RightFoot  -1.00708 -0.92673 10.1564
RightToes  3.49245e-010 0 -3.6325e-017
Spine  3.82403 -1.36009 -6.93111
Spine1  8.76827 -1.41594 -0.752093
HEad  -10.1642 2.89406 -3.0668
LeftShoulder1  -0.428412 4.6646 -30.7667
LeftArm  8.65584 -25.2492 -45.1508
LeftForeArm  20.8706 -35.1694 -6.67446
LeftHand  -0.0553492 4.54446 4.89411
RightShoulder  -0.831089 -5.8591 28.6791
RightArm  13.2692 -11.9957 43.5871
RightForeArm  22.7604 6.56582 6.54855
RightHand  -0.0785407 3.44171 -1.28037
LeftUpLeg  5.70922 4.16024 -10.6706
LeftLeg  17.1318 2.09636 0.522102
LeftFoot  -14.8773 0.337858 8.02643
LeftToes  -5.6298e-010 8.41567e-011 -1.83319e-011
416
root  -53.7891 39.1469 2.0438 -107.616 -82.2725 100.183
RightUpLeg  -18.3004 -8.11778 -7.73972
RightLeg  0.0592843 10.4007 -1.34489
RightFoot  -1.60994 -0.94174 10.8783
RightToes  3.49245e-010 0 -3.6325e-017
Spine  3.22327 -1.26906 -6.45932
Spine1  9.24712 -1.22521 -0.903968
HEad  -10.4049 2.78755 -3.92114
LeftShoulder1  -0.444635 4.70064 -31.0161
LeftArm  9.10838 -24.2055 -45.1243
LeftForeArm  21.9613 -36.6956 -7.02472
LeftHand  -0.0609594 4.26315 4.27028
RightShoulder  -0.835079 -5.873 28.6419
RightArm  12.9929 -11.5674 43.7669
RightForeArm  22.5472 6.40333 6.47335
RightHand  -0.0723808 4.32128 -1.14093
LeftUpLeg  7.83759 3.87969 -11.1989
LeftLeg  16.4197 2.29993 0.669091
LeftFoot  -16.3625 0.438323 7.74738
LeftToes  -5.6298e-010 8.41567e-011 -1.83319e-011
